<mxfile host="app.diagrams.net" modified="2024-07-09T15:57:38.308Z" agent="Mozilla/5.0 (X11; Linux x86_64; rv:127.0) Gecko/20100101 Firefox/127.0" etag="Z2IJLk1jWvlQ8KH2m9_M" version="24.6.4" type="github">
  <diagram id="MU9Agu6tMM-13lvCyBpb" name="Page-2">
    <mxGraphModel dx="2758" dy="2322" grid="1" gridSize="10" guides="1" tooltips="1" connect="1" arrows="1" fold="1" page="1" pageScale="1" pageWidth="850" pageHeight="1100" math="0" shadow="0">
      <root>
        <mxCell id="0" />
        <mxCell id="1" parent="0" />
        <mxCell id="tGgB-5F8hRr1pIuJ4x4h-5" style="edgeStyle=orthogonalEdgeStyle;rounded=0;orthogonalLoop=1;jettySize=auto;html=1;exitX=1;exitY=0.5;exitDx=0;exitDy=0;entryX=0;entryY=0.5;entryDx=0;entryDy=0;startArrow=classic;startFill=1;" parent="1" source="tGgB-5F8hRr1pIuJ4x4h-1" target="tGgB-5F8hRr1pIuJ4x4h-2" edge="1">
          <mxGeometry relative="1" as="geometry" />
        </mxCell>
        <mxCell id="tGgB-5F8hRr1pIuJ4x4h-1" value="Lớp Ứng dụng" style="rounded=0;whiteSpace=wrap;html=1;" parent="1" vertex="1">
          <mxGeometry x="-780" y="590" width="150" height="60" as="geometry" />
        </mxCell>
        <mxCell id="tGgB-5F8hRr1pIuJ4x4h-6" style="edgeStyle=orthogonalEdgeStyle;rounded=0;orthogonalLoop=1;jettySize=auto;html=1;exitX=1;exitY=0.5;exitDx=0;exitDy=0;startArrow=classic;startFill=1;" parent="1" source="tGgB-5F8hRr1pIuJ4x4h-2" target="tGgB-5F8hRr1pIuJ4x4h-3" edge="1">
          <mxGeometry relative="1" as="geometry" />
        </mxCell>
        <mxCell id="tGgB-5F8hRr1pIuJ4x4h-2" value="Lớp Giao tiếp" style="rounded=0;whiteSpace=wrap;html=1;" parent="1" vertex="1">
          <mxGeometry x="-590" y="590" width="150" height="60" as="geometry" />
        </mxCell>
        <mxCell id="tGgB-5F8hRr1pIuJ4x4h-7" style="edgeStyle=orthogonalEdgeStyle;rounded=0;orthogonalLoop=1;jettySize=auto;html=1;entryX=0;entryY=0.5;entryDx=0;entryDy=0;startArrow=classic;startFill=1;" parent="1" source="tGgB-5F8hRr1pIuJ4x4h-3" target="tGgB-5F8hRr1pIuJ4x4h-4" edge="1">
          <mxGeometry relative="1" as="geometry" />
        </mxCell>
        <mxCell id="tGgB-5F8hRr1pIuJ4x4h-3" value="Lớp Xử lý và Phân tích" style="rounded=0;whiteSpace=wrap;html=1;" parent="1" vertex="1">
          <mxGeometry x="-400" y="590" width="150" height="60" as="geometry" />
        </mxCell>
        <mxCell id="tGgB-5F8hRr1pIuJ4x4h-4" value="Lớp Lưu trữ" style="rounded=0;whiteSpace=wrap;html=1;" parent="1" vertex="1">
          <mxGeometry x="-210" y="590" width="150" height="60" as="geometry" />
        </mxCell>
        <mxCell id="xPNG00O8K89n8th7ZpC1-24" value="" style="group" vertex="1" connectable="0" parent="1">
          <mxGeometry x="-850" y="-362" width="1724" height="560" as="geometry" />
        </mxCell>
        <mxCell id="ZUFYxS0Z95xD3i-FfnXa-6" value="" style="rounded=0;whiteSpace=wrap;html=1;" parent="xPNG00O8K89n8th7ZpC1-24" vertex="1">
          <mxGeometry x="1314" width="410" height="560" as="geometry" />
        </mxCell>
        <mxCell id="ZUFYxS0Z95xD3i-FfnXa-4" value="" style="rounded=0;whiteSpace=wrap;html=1;" parent="xPNG00O8K89n8th7ZpC1-24" vertex="1">
          <mxGeometry x="874" width="410" height="560" as="geometry" />
        </mxCell>
        <mxCell id="ZUFYxS0Z95xD3i-FfnXa-1" value="" style="rounded=0;whiteSpace=wrap;html=1;" parent="xPNG00O8K89n8th7ZpC1-24" vertex="1">
          <mxGeometry width="850" height="560" as="geometry" />
        </mxCell>
        <mxCell id="ZUFYxS0Z95xD3i-FfnXa-3" value="&lt;font style=&quot;font-size: 30px;&quot;&gt;Extract&lt;/font&gt;" style="text;html=1;align=center;verticalAlign=middle;resizable=0;points=[];autosize=1;strokeColor=none;fillColor=none;fontSize=30;" parent="xPNG00O8K89n8th7ZpC1-24" vertex="1">
          <mxGeometry x="364" y="9" width="120" height="50" as="geometry" />
        </mxCell>
        <mxCell id="ZUFYxS0Z95xD3i-FfnXa-5" value="&lt;font style=&quot;font-size: 30px;&quot;&gt;Transform&lt;/font&gt;" style="text;html=1;align=center;verticalAlign=middle;resizable=0;points=[];autosize=1;strokeColor=none;fillColor=none;fontSize=30;" parent="xPNG00O8K89n8th7ZpC1-24" vertex="1">
          <mxGeometry x="999" y="9" width="160" height="50" as="geometry" />
        </mxCell>
        <mxCell id="ZUFYxS0Z95xD3i-FfnXa-7" value="Load" style="text;html=1;align=center;verticalAlign=middle;resizable=0;points=[];autosize=1;strokeColor=none;fillColor=none;fontSize=30;" parent="xPNG00O8K89n8th7ZpC1-24" vertex="1">
          <mxGeometry x="1474" y="9" width="90" height="50" as="geometry" />
        </mxCell>
        <mxCell id="xPNG00O8K89n8th7ZpC1-2" value="Lớp Lưu trữ" style="shape=module;align=left;spacingLeft=20;align=center;verticalAlign=top;whiteSpace=wrap;html=1;fontStyle=1;fontFamily=Times New Roman;fontSize=25;" vertex="1" parent="xPNG00O8K89n8th7ZpC1-24">
          <mxGeometry x="1325" y="107" width="380" height="440" as="geometry" />
        </mxCell>
        <mxCell id="xPNG00O8K89n8th7ZpC1-3" value="Lớp Xử lý và Phân tích" style="shape=module;align=left;spacingLeft=20;align=center;verticalAlign=top;whiteSpace=wrap;html=1;fontStyle=1;fontFamily=Times New Roman;fontSize=25;" vertex="1" parent="xPNG00O8K89n8th7ZpC1-24">
          <mxGeometry x="885" y="107" width="380" height="440" as="geometry" />
        </mxCell>
        <mxCell id="xPNG00O8K89n8th7ZpC1-4" value="Lớp Giao tiếp" style="shape=module;align=left;spacingLeft=20;align=center;verticalAlign=top;whiteSpace=wrap;html=1;fontStyle=1;fontFamily=Times New Roman;fontSize=25;" vertex="1" parent="xPNG00O8K89n8th7ZpC1-24">
          <mxGeometry x="451" y="107" width="380" height="440" as="geometry" />
        </mxCell>
        <mxCell id="xPNG00O8K89n8th7ZpC1-5" value="Lớp Ứng dụng" style="shape=module;align=left;spacingLeft=20;align=center;verticalAlign=top;whiteSpace=wrap;html=1;fontStyle=1;fontFamily=Times New Roman;fontSize=25;" vertex="1" parent="xPNG00O8K89n8th7ZpC1-24">
          <mxGeometry x="14" y="107" width="380" height="440" as="geometry" />
        </mxCell>
        <mxCell id="xPNG00O8K89n8th7ZpC1-6" value="" style="endArrow=classic;html=1;rounded=0;exitX=0;exitY=0.75;exitDx=0;exitDy=0;entryX=0.997;entryY=0.38;entryDx=0;entryDy=0;entryPerimeter=0;" edge="1" parent="xPNG00O8K89n8th7ZpC1-24">
          <mxGeometry width="50" height="50" relative="1" as="geometry">
            <mxPoint x="946" y="351.00250000000005" as="sourcePoint" />
            <mxPoint x="738.5114000000003" y="422.80142857142846" as="targetPoint" />
            <mxPoint x="-14" y="175.0025" as="sourcePoint" />
            <mxPoint x="-228" y="247.45" as="targetPoint" />
          </mxGeometry>
        </mxCell>
        <mxCell id="xPNG00O8K89n8th7ZpC1-7" value="" style="endArrow=classic;html=1;rounded=0;entryX=0.007;entryY=0.427;entryDx=0;entryDy=0;entryPerimeter=0;exitX=0.996;exitY=0.657;exitDx=0;exitDy=0;exitPerimeter=0;" edge="1" parent="xPNG00O8K89n8th7ZpC1-24" source="xPNG00O8K89n8th7ZpC1-9" target="xPNG00O8K89n8th7ZpC1-10">
        <mxCell id="S8vObqpAsYyYiZip6gTa-15" value="" style="endArrow=classic;html=1;rounded=0;entryX=0.007;entryY=0.427;entryDx=0;entryDy=0;entryPerimeter=0;exitX=0.996;exitY=0.657;exitDx=0;exitDy=0;exitPerimeter=0;" parent="1" source="S8vObqpAsYyYiZip6gTa-24" target="S8vObqpAsYyYiZip6gTa-12" edge="1">
          <mxGeometry width="50" height="50" relative="1" as="geometry">
            <mxPoint x="823" y="256.63750000000005" as="sourcePoint" />
            <mxPoint x="976" y="454" as="targetPoint" />
          </mxGeometry>
        </mxCell>
        <mxCell id="xPNG00O8K89n8th7ZpC1-8" value="" style="endArrow=classic;html=1;rounded=0;exitX=0.5;exitY=0;exitDx=0;exitDy=0;entryX=0.5;entryY=1;entryDx=0;entryDy=0;" edge="1" parent="xPNG00O8K89n8th7ZpC1-24" source="xPNG00O8K89n8th7ZpC1-26" target="xPNG00O8K89n8th7ZpC1-9">
          <mxGeometry width="50" height="50" relative="1" as="geometry">
            <mxPoint x="641" y="362.00142857142873" as="sourcePoint" />
            <mxPoint x="634" y="296" as="targetPoint" />
          </mxGeometry>
        </mxCell>
        <mxCell id="xPNG00O8K89n8th7ZpC1-9" value="" style="shape=image;verticalLabelPosition=bottom;labelBackgroundColor=default;verticalAlign=top;aspect=fixed;imageAspect=0;image=https://blog.skillfactory.ru/wp-content/uploads/2023/02/apache_kafka_wordtype.svg-2658022.png;" vertex="1" parent="xPNG00O8K89n8th7ZpC1-24">
          <mxGeometry x="481" y="148.00000000000006" width="320" height="160" as="geometry" />
        </mxCell>
        <mxCell id="xPNG00O8K89n8th7ZpC1-10" value="" style="shape=image;verticalLabelPosition=bottom;labelBackgroundColor=default;verticalAlign=top;aspect=fixed;imageAspect=0;image=https://upload.wikimedia.org/wikipedia/commons/thumb/f/f3/Apache_Spark_logo.svg/1200px-Apache_Spark_logo.svg.png;" vertex="1" parent="xPNG00O8K89n8th7ZpC1-24">
          <mxGeometry x="950" y="269.21000000000004" width="250" height="129.79" as="geometry" />
        </mxCell>
        <mxCell id="xPNG00O8K89n8th7ZpC1-11" value="" style="shape=image;verticalLabelPosition=bottom;labelBackgroundColor=default;verticalAlign=top;aspect=fixed;imageAspect=0;image=https://upload.wikimedia.org/wikipedia/commons/thumb/5/5e/Cassandra_logo.svg/1200px-Cassandra_logo.svg.png;" vertex="1" parent="xPNG00O8K89n8th7ZpC1-24">
          <mxGeometry x="1405" y="260.4" width="220" height="147.41" as="geometry" />
        </mxCell>
        <mxCell id="xPNG00O8K89n8th7ZpC1-12" value="" style="shape=image;verticalLabelPosition=bottom;labelBackgroundColor=default;verticalAlign=top;aspect=fixed;imageAspect=0;image=https://cdn.icon-icons.com/icons2/2699/PNG/512/firebase_logo_icon_168209.png;" vertex="1" parent="xPNG00O8K89n8th7ZpC1-24">
          <mxGeometry x="44" y="143" width="319.99" height="160" as="geometry" />
        </mxCell>
        <mxCell id="xPNG00O8K89n8th7ZpC1-14" value="" style="endArrow=classic;html=1;rounded=0;exitX=0.25;exitY=0;exitDx=0;exitDy=0;entryX=0.407;entryY=1.001;entryDx=0;entryDy=0;entryPerimeter=0;" edge="1" parent="xPNG00O8K89n8th7ZpC1-24">
          <mxGeometry width="50" height="50" relative="1" as="geometry">
            <mxPoint x="187" y="379" as="sourcePoint" />
            <mxPoint x="187.23592999999983" y="303.1600000000001" as="targetPoint" />
          </mxGeometry>
        </mxCell>
        <mxCell id="xPNG00O8K89n8th7ZpC1-15" value="" style="endArrow=classic;html=1;rounded=0;" edge="1" parent="xPNG00O8K89n8th7ZpC1-24">
          <mxGeometry width="50" height="50" relative="1" as="geometry">
            <mxPoint x="216.99685185185194" y="303" as="sourcePoint" />
            <mxPoint x="216.99861111111113" y="379" as="targetPoint" />
          </mxGeometry>
        </mxCell>
        <mxCell id="xPNG00O8K89n8th7ZpC1-16" value="" style="endArrow=classic;html=1;rounded=0;exitX=1;exitY=0.25;exitDx=0;exitDy=0;" edge="1" parent="xPNG00O8K89n8th7ZpC1-24">
          <mxGeometry width="50" height="50" relative="1" as="geometry">
            <mxPoint x="284" y="436.5" as="sourcePoint" />
            <mxPoint x="544" y="436.5" as="targetPoint" />
          </mxGeometry>
        </mxCell>
        <mxCell id="xPNG00O8K89n8th7ZpC1-17" value="" style="endArrow=classic;html=1;rounded=0;" edge="1" parent="xPNG00O8K89n8th7ZpC1-24">
          <mxGeometry width="50" height="50" relative="1" as="geometry">
            <mxPoint x="543" y="471.5" as="sourcePoint" />
            <mxPoint x="288" y="471.5" as="targetPoint" />
          </mxGeometry>
        </mxCell>
        <mxCell id="xPNG00O8K89n8th7ZpC1-18" value="" style="endArrow=classic;html=1;rounded=0;entryX=-0.004;entryY=0.377;entryDx=0;entryDy=0;entryPerimeter=0;" edge="1" parent="xPNG00O8K89n8th7ZpC1-24" target="xPNG00O8K89n8th7ZpC1-11">
          <mxGeometry width="50" height="50" relative="1" as="geometry">
            <mxPoint x="1200" y="317.0001961425303" as="sourcePoint" />
            <mxPoint x="1414" y="316" as="targetPoint" />
          </mxGeometry>
        </mxCell>
        <mxCell id="xPNG00O8K89n8th7ZpC1-19" value="" style="endArrow=classic;html=1;rounded=0;exitX=0.005;exitY=0.594;exitDx=0;exitDy=0;exitPerimeter=0;entryX=0.996;entryY=0.63;entryDx=0;entryDy=0;entryPerimeter=0;" edge="1" parent="xPNG00O8K89n8th7ZpC1-24" source="xPNG00O8K89n8th7ZpC1-11" target="xPNG00O8K89n8th7ZpC1-10">
          <mxGeometry width="50" height="50" relative="1" as="geometry">
            <mxPoint x="-93" y="134.5" as="sourcePoint" />
            <mxPoint x="-415" y="84.5" as="targetPoint" />
          </mxGeometry>
        </mxCell>
        <mxCell id="xPNG00O8K89n8th7ZpC1-20" value="" style="endArrow=classic;html=1;rounded=0;exitX=0;exitY=0.75;exitDx=0;exitDy=0;" edge="1" parent="xPNG00O8K89n8th7ZpC1-24">
          <mxGeometry width="50" height="50" relative="1" as="geometry">
            <mxPoint x="451" y="168" as="sourcePoint" />
            <mxPoint x="232" y="182" as="targetPoint" />
          </mxGeometry>
        </mxCell>
        <mxCell id="xPNG00O8K89n8th7ZpC1-21" value="" style="shape=image;verticalLabelPosition=bottom;labelBackgroundColor=default;verticalAlign=top;aspect=fixed;imageAspect=0;image=https://www.svgrepo.com/show/80195/phone-call.svg;" vertex="1" parent="xPNG00O8K89n8th7ZpC1-24">
          <mxGeometry x="144" y="385" width="140" height="140" as="geometry" />
        </mxCell>
        <mxCell id="S8vObqpAsYyYiZip6gTa-9" value="" style="shape=image;verticalLabelPosition=bottom;labelBackgroundColor=default;verticalAlign=top;aspect=fixed;imageAspect=0;image=https://tenten.vn/tin-tuc/wp-content/uploads/2021/03/Firebase-la%CC%80-gi%CC%80-Gia%CC%89i-pha%CC%81p-la%CC%A3%CC%82p-tri%CC%80nh-kho%CC%82ng-ca%CC%82%CC%80n-Backend-tu%CC%9B%CC%80-Google-4.png;container=0;" vertex="1" parent="1">
          <mxGeometry x="-876" y="-32" width="251.99" height="168" as="geometry" />
        </mxCell>
      </root>
    </mxGraphModel>
  </diagram>
</mxfile>
